<?xml version="1.0" encoding="utf-8"?>
<!-- Generator: Adobe Illustrator 16.0.4, SVG Export Plug-In . SVG Version: 6.00 Build 0)  -->
<!DOCTYPE svg PUBLIC "-//W3C//DTD SVG 1.1//EN" "http://www.w3.org/Graphics/SVG/1.1/DTD/svg11.dtd">
<svg version="1.1" id="Layer_1" xmlns="http://www.w3.org/2000/svg" xmlns:xlink="http://www.w3.org/1999/xlink" x="0px" y="0px"
	 width="473.119px" height="103.19px" viewBox="0 0 473.119 103.19" enable-background="new 0 0 473.119 103.19"
	 xml:space="preserve">
<path fill="#FFFFFF" d="M130.838,3l22.297,65.557h0.267L174.499,3h29.507v95.331h-19.627v-67.56h-0.267l-23.366,67.56h-16.155
	l-23.366-66.892h-0.267v66.892h-19.627V3H130.838z"/>
<path fill="#FFFFFF" d="M203.042,48.863c1.69-4.494,4.093-8.322,7.21-11.482c3.115-3.159,6.853-5.608,11.215-7.344
	c4.36-1.735,9.257-2.604,14.687-2.604c5.429,0,10.348,0.868,14.754,2.604c4.406,1.736,8.165,4.185,11.282,7.344
	c3.115,3.161,5.518,6.989,7.209,11.482c1.691,4.496,2.537,9.502,2.537,15.021c0,5.52-0.846,10.504-2.537,14.954
	c-1.691,4.452-4.094,8.257-7.209,11.416c-3.117,3.161-6.876,5.587-11.282,7.276c-4.406,1.69-9.325,2.537-14.754,2.537
	c-5.43,0-10.326-0.847-14.687-2.537c-4.362-1.689-8.101-4.116-11.215-7.276c-3.117-3.159-5.52-6.964-7.21-11.416
	c-1.692-4.45-2.537-9.434-2.537-14.954C200.505,58.366,201.35,53.359,203.042,48.863z M220.266,71.961
	c0.534,2.626,1.446,4.986,2.737,7.077c1.289,2.092,3.004,3.761,5.14,5.007c2.136,1.248,4.807,1.869,8.011,1.869
	c3.205,0,5.896-0.622,8.078-1.869c2.18-1.246,3.916-2.915,5.207-5.007c1.289-2.09,2.203-4.45,2.737-7.077
	c0.534-2.625,0.801-5.317,0.801-8.078c0-2.758-0.267-5.474-0.801-8.145s-1.448-5.028-2.737-7.076
	c-1.291-2.047-3.027-3.716-5.207-5.007c-2.182-1.29-4.873-1.936-8.078-1.936c-3.204,0-5.875,0.646-8.011,1.936
	c-2.136,1.291-3.851,2.96-5.14,5.007c-1.292,2.048-2.203,4.406-2.737,7.076s-0.801,5.387-0.801,8.145
	C219.465,66.644,219.731,69.337,220.266,71.961z"/>
<path fill="#FFFFFF" d="M284.048,98.331l-23.631-69.028h19.893l14.555,47.132h0.266l14.555-47.132h18.824l-23.365,69.028H284.048z"
	/>
<polygon fill="#FFFFFF" points="345.426,18.622 326.467,18.622 326.467,3 "/>
<polygon fill="#77B5B4" points="326.467,0 345.426,0 345.426,15.622 "/>
<rect x="326.467" y="29.303" fill="#FFFFFF" width="18.959" height="69.028"/>
<path fill="#FFFFFF" d="M366.174,81.775c2.848,2.76,6.942,4.139,12.283,4.139c3.826,0,7.12-0.956,9.88-2.871
	c2.758-1.913,4.45-3.939,5.074-6.075h16.689c-2.671,8.278-6.766,14.199-12.284,17.758c-5.52,3.561-12.195,5.341-20.027,5.341
	c-5.43,0-10.326-0.868-14.687-2.604c-4.362-1.736-8.057-4.206-11.082-7.41c-3.027-3.205-5.363-7.031-7.01-11.482
	c-1.647-4.45-2.47-9.346-2.47-14.687c0-5.161,0.845-9.968,2.537-14.42c1.689-4.45,4.093-8.299,7.21-11.549
	c3.114-3.249,6.83-5.808,11.148-7.677c4.316-1.87,9.1-2.804,14.353-2.804c5.875,0,10.992,1.135,15.354,3.405
	c4.36,2.27,7.944,5.32,10.748,9.146c2.804,3.828,4.828,8.19,6.075,13.084c1.245,4.896,1.689,10.014,1.335,15.354H361.5
	C361.768,74.565,363.324,79.017,366.174,81.775z M387.603,45.458c-2.27-2.491-5.72-3.738-10.348-3.738
	c-3.026,0-5.541,0.513-7.543,1.535c-2.003,1.024-3.605,2.293-4.807,3.805c-1.202,1.515-2.049,3.117-2.537,4.807
	c-0.49,1.692-0.78,3.205-0.868,4.54h30.843C391.453,51.6,389.873,47.952,387.603,45.458z"/>
<path fill="#FFFFFF" d="M425.471,81.174c0.845,1.469,1.937,2.67,3.271,3.605s2.87,1.625,4.606,2.069
	c1.735,0.446,3.538,0.667,5.407,0.667c1.335,0,2.737-0.154,4.206-0.467c1.468-0.311,2.804-0.801,4.005-1.469
	c1.202-0.667,2.203-1.556,3.004-2.67c0.802-1.112,1.202-2.514,1.202-4.206c0-2.848-1.893-4.984-5.675-6.409
	c-3.784-1.423-9.058-2.848-15.821-4.272c-2.76-0.622-5.453-1.356-8.078-2.203c-2.626-0.845-4.963-1.957-7.01-3.338
	c-2.048-1.379-3.694-3.115-4.939-5.207c-1.248-2.09-1.869-4.65-1.869-7.677c0-4.45,0.867-8.099,2.604-10.949
	c1.735-2.848,4.026-5.094,6.876-6.742c2.848-1.646,6.052-2.804,9.613-3.472c3.559-0.667,7.21-1.001,10.948-1.001
	s7.364,0.357,10.882,1.068c3.515,0.713,6.652,1.915,9.412,3.605c2.759,1.692,5.051,3.938,6.877,6.743
	c1.823,2.804,2.914,6.342,3.271,10.614h-18.024c-0.268-3.648-1.648-6.119-4.14-7.41c-2.492-1.289-5.43-1.936-8.812-1.936
	c-1.068,0-2.226,0.067-3.472,0.2c-1.247,0.134-2.382,0.424-3.404,0.868c-1.024,0.446-1.893,1.091-2.604,1.936
	c-0.714,0.847-1.068,1.982-1.068,3.405c0,1.692,0.622,3.071,1.869,4.139c1.245,1.068,2.871,1.936,4.873,2.604
	c2.003,0.668,4.294,1.269,6.876,1.803c2.581,0.534,5.208,1.114,7.878,1.736c2.758,0.624,5.451,1.381,8.078,2.27
	c2.624,0.891,4.961,2.069,7.009,3.538c2.047,1.469,3.693,3.294,4.94,5.474c1.246,2.182,1.869,4.874,1.869,8.078
	c0,4.54-0.913,8.345-2.737,11.416c-1.825,3.071-4.205,5.541-7.143,7.41s-6.298,3.184-10.081,3.938
	c-3.784,0.755-7.633,1.135-11.549,1.135c-4.006,0-7.923-0.401-11.749-1.202c-3.828-0.801-7.233-2.136-10.214-4.005
	c-2.983-1.87-5.431-4.339-7.344-7.411c-1.915-3.071-2.961-5.866-3.138-10.495h18.024C424.203,79.002,424.625,79.706,425.471,81.174z
	"/>
<rect y="3" fill="#77B5B4" width="95.331" height="95.331"/>
<g>
	<path fill="#FFFFFF" d="M15.767,52.435h2.203v6.086h0.116c0.231-0.925,0.637-1.807,1.217-2.637c0.581-0.83,1.283-1.557,2.116-2.175
		c0.83-0.618,1.757-1.099,2.783-1.448c1.024-0.349,2.095-0.519,3.218-0.519c1.429,0,2.665,0.179,3.708,0.547
		c1.045,0.368,1.934,0.854,2.667,1.448c0.734,0.604,1.314,1.278,1.739,2.033c0.424,0.75,0.714,1.515,0.87,2.288h0.116
		c0.889-2.085,2.078-3.661,3.564-4.727c1.489-1.062,3.451-1.59,5.885-1.59c1.352,0,2.6,0.203,3.739,0.609
		c1.14,0.405,2.125,1.023,2.956,1.854c0.833,0.831,1.479,1.883,1.944,3.156c0.462,1.278,0.696,2.784,0.696,4.524v20.347H53.1V61.828
		c0-1.896-0.29-3.383-0.87-4.468c-0.581-1.08-1.267-1.901-2.057-2.462c-0.792-0.557-1.585-0.906-2.378-1.042
		c-0.792-0.137-1.401-0.203-1.826-0.203c-1.354,0-2.599,0.231-3.739,0.693c-1.142,0.467-2.125,1.161-2.958,2.09
		c-0.831,0.925-1.477,2.076-1.941,3.449c-0.465,1.373-0.696,2.949-0.696,4.723v17.625h-2.203V61.828c0-1.859-0.281-3.335-0.84-4.435
		c-0.562-1.104-1.217-1.925-1.972-2.467c-0.752-0.538-1.526-0.887-2.319-1.042c-0.792-0.151-1.42-0.231-1.882-0.231
		c-1.045,0-2.128,0.212-3.249,0.637c-1.12,0.425-2.144,1.085-3.071,1.972c-0.927,0.892-1.682,2.029-2.262,3.42
		c-0.578,1.392-0.868,3.033-0.868,4.925v17.625h-2.203V52.435z"/>
	<path fill="#FFFFFF" d="M58.258,52.435h2.606l11.072,27.188l10.205-27.188h2.493L71.88,85.421c-0.618,1.467-1.188,2.731-1.71,3.798
		c-0.521,1.062-1.111,1.845-1.769,2.345c-0.774,0.618-1.691,0.995-2.753,1.132c-1.063,0.137-2.462,0.203-4.203,0.203v-1.915
		c1.585,0,2.821-0.123,3.71-0.373c0.889-0.255,1.719-0.764,2.493-1.538c0.425-0.424,0.868-1.208,1.333-2.349
		c0.465-1.137,1.043-2.694,1.739-4.666L58.258,52.435z"/>
</g>
</svg>
